<svg width="364" height="193" viewBox="0 0 364 193" fill="none" xmlns="http://www.w3.org/2000/svg">
<g clip-path="url(#clip0_1_236)">
<rect x="1.52588e-05" y="10" width="364" height="301.241" fill="#F8EBAA"/>
<path d="M15.6897 311.241V10" stroke="#76BFC7" stroke-width="0.47069"/>
<path d="M31.3793 311.241V10.0001" stroke="#76BFC7" stroke-width="0.47069"/>
<path d="M47.069 311.241V10.0001" stroke="#FF7BAC" stroke-width="0.836782"/>
<path d="M62.7586 311.241V10.0001" stroke="#76BFC7" stroke-width="0.47069"/>
<path d="M78.4483 311.241V10.0001" stroke="#76BFC7" stroke-width="0.47069"/>
<path d="M94.1379 311.241V10.0001" stroke="#76BFC7" stroke-width="0.47069"/>
<path d="M109.828 311.241V10.0001" stroke="#76BFC7" stroke-width="0.47069"/>
<path d="M125.517 311.241V10.0001" stroke="#76BFC7" stroke-width="0.47069"/>
<path d="M141.207 311.241V10.0001" stroke="#76BFC7" stroke-width="0.47069"/>
<path d="M156.897 311.241V10.0001" stroke="#76BFC7" stroke-width="0.47069"/>
<path d="M172.586 311.241V10.0001" stroke="#76BFC7" stroke-width="0.47069"/>
<path d="M188.276 311.241V10.0001" stroke="#76BFC7" stroke-width="0.47069"/>
<path d="M203.966 311.241V10.0001" stroke="#76BFC7" stroke-width="0.47069"/>
<path d="M219.655 311.241V10.0001" stroke="#76BFC7" stroke-width="0.47069"/>
<path d="M235.345 311.241V10.0001" stroke="#76BFC7" stroke-width="0.47069"/>
<path d="M251.034 311.241V10.0001" stroke="#76BFC7" stroke-width="0.47069"/>
<path d="M266.724 311.241V10.0001" stroke="#76BFC7" stroke-width="0.47069"/>
<path d="M282.414 311.241V10.0001" stroke="#76BFC7" stroke-width="0.47069"/>
<path d="M298.103 311.241V10.0001" stroke="#76BFC7" stroke-width="0.47069"/>
<path d="M313.793 311.241V10.0001" stroke="#76BFC7" stroke-width="0.47069"/>
<path d="M329.483 311.241V10.0001" stroke="#76BFC7" stroke-width="0.47069"/>
<path d="M345.172 311.241V10.0001" stroke="#76BFC7" stroke-width="0.47069"/>
<path d="M360.862 311.241V10.0001" stroke="#76BFC7" stroke-width="0.47069"/>
<path d="M364 166.897L1.52588e-05 166.897" stroke="#76BFC7" stroke-width="0.47069"/>
<path d="M364 151.207L1.52588e-05 151.207" stroke="#76BFC7" stroke-width="0.47069"/>
<path d="M364 135.517L1.52588e-05 135.517" stroke="#76BFC7" stroke-width="0.47069"/>
<path d="M364 119.828L1.52588e-05 119.828" stroke="#76BFC7" stroke-width="0.47069"/>
<path d="M364 104.138L1.52588e-05 104.138" stroke="#76BFC7" stroke-width="0.47069"/>
<path d="M364 88.4484L1.52588e-05 88.4484" stroke="#76BFC7" stroke-width="0.47069"/>
<path d="M364 72.7588L1.52588e-05 72.7588" stroke="#76BFC7" stroke-width="0.47069"/>
<path d="M364 57.069L0 57.069" stroke="#76BFC7" stroke-width="0.47069"/>
<path d="M364 41.3792L0 41.3792" stroke="#76BFC7" stroke-width="0.47069"/>
<path d="M364 25.6899L1.52588e-05 25.6899" stroke="#76BFC7" stroke-width="0.47069"/>
<path d="M364 10.0001L0 10.0001" stroke="#76BFC7" stroke-width="0.47069"/>
<circle cx="15.6897" cy="33.0117" r="7.32184" fill="black"/>
<circle cx="15.6897" cy="69.6206" r="7.32184" fill="black"/>
<circle cx="15.6897" cy="106.23" r="7.32184" fill="black"/>
<circle cx="15.6897" cy="142.839" r="7.32184" fill="black"/>
<circle cx="15.6897" cy="179.448" r="7.32184" fill="black"/>
</g>
<path d="M42.1802 45.5846V10.156C42.1802 4.54583 46.7306 0 52.3062 0C57.8817 0 62.4321 4.56387 62.4321 10.156H58.3494C58.3494 6.81875 55.6335 4.09485 52.3062 4.09485C48.9788 4.09485 46.2629 6.81875 46.2629 10.156V45.5846C46.2629 48.9218 48.9788 51.6457 52.3062 51.6457C55.6335 51.6457 58.3494 48.9218 58.3494 45.5846V24.028C58.3494 22.8915 59.2667 21.9715 60.3998 21.9715C61.5329 21.9715 62.4501 22.8915 62.4501 24.028V45.5846C62.4501 51.1947 57.8997 55.7405 52.3241 55.7405C46.7486 55.7405 42.1982 51.1767 42.1982 45.5846H42.1802Z" fill="#EB6060"/>
<g clip-path="url(#clip1_1_236)">
<path style="mix-blend-mode:multiply" opacity="0.15" d="M-0.668045 180.904C-0.668045 174.374 80.8615 169.089 181.438 169.089C282.014 169.089 363.544 174.374 363.544 180.904C363.544 187.434 282.014 192.72 181.438 192.72C80.8615 192.72 -0.668045 187.434 -0.668045 180.904Z" fill="url(#paint0_radial_1_236)"/>
<path d="M-0.668045 60.133V177.874C0.519016 177.838 4.11617 176.647 4.7097 176.629C4.76366 176.629 4.81762 176.629 4.87157 176.629C5.41115 176.611 5.95072 176.593 6.50828 176.575C7.10181 176.467 7.69534 176.539 8.30685 176.412C8.90038 176.467 9.49391 176.394 10.1054 176.43C10.699 176.376 11.2925 176.268 11.904 176.304C12.4975 176.268 13.0911 176.485 13.7026 176.304C14.2961 176.954 14.8896 176.178 15.5012 176.467C16.0947 176.683 16.6882 176.647 17.2997 176.16C17.8933 176.358 18.4868 175.637 19.0983 175.673C19.6918 175.132 20.2854 176.16 20.8969 176.016C21.4904 176.25 22.084 176.467 22.6955 176.07C23.289 175.907 23.8825 175.745 24.494 175.871C24.7998 175.889 25.0876 175.943 25.3933 175.943C25.6991 175.943 25.9869 175.889 26.2926 175.673C26.5984 175.853 26.8862 176.034 27.1919 175.943C27.4977 176.052 27.7854 175.871 28.0912 175.727C28.6847 175.998 29.2783 175.529 29.8898 175.673C30.1955 175.438 30.4833 175.655 30.7891 175.438C31.0948 175.42 31.3826 175.204 31.6884 175.601C31.9941 175.402 32.2819 174.987 32.5876 175.114C32.8934 174.861 33.1812 175.023 33.4869 175.42C33.7927 175.258 34.0805 175.745 34.3862 175.583C34.692 175.204 34.9798 175.673 35.2855 175.474C35.5913 175.583 35.879 175.15 36.1848 175.132C36.4906 175.384 36.7783 175.871 37.0841 175.492C37.3898 175.745 37.6776 175.871 37.9834 175.565C38.2891 175.15 38.5769 175.366 38.8827 175.33C39.1884 175.583 39.4762 175.673 39.782 175.24C40.0877 175.348 40.3755 175.348 40.6812 175.24C40.987 175.078 41.2748 174.807 41.5805 175.096C41.8863 175.222 42.1741 175.186 42.4798 175.222C42.7856 175.204 43.0733 175.168 43.3791 174.951C43.6849 174.951 43.9726 174.807 44.2784 174.915C44.5842 174.23 44.8719 174.194 45.1777 174.5C45.4834 174.771 45.7712 174.987 46.077 175.096C46.3827 174.681 46.6705 175.384 46.9763 175.06C47.282 174.933 47.5698 175.078 47.8755 174.825C48.1813 174.572 48.4691 175.096 48.7748 174.663C49.0806 174.627 49.3684 175.204 49.6741 174.969C50.1777 175.33 50.6633 174.915 51.1669 174.843C51.6705 175.132 52.1742 174.23 52.6598 174.861C53.1634 175.763 53.667 175.15 54.1706 174.915C54.6742 175.276 55.1778 175.023 55.6814 174.789C56.185 174.464 56.6886 174.753 57.1922 174.572C57.6958 174.374 58.1994 175.276 58.703 174.807C59.1886 174.518 59.6562 174.861 60.1418 174.807C60.6275 174.392 61.1131 174.951 61.5807 174.897C62.0663 174.951 62.534 174.825 63.0196 174.807C63.4872 174.41 63.9548 174.609 64.4225 174.825C64.7282 174.915 65.034 174.879 65.3217 174.717C65.6095 174.609 65.8973 174.825 66.1671 174.572C66.4369 174.645 66.7067 174.5 66.9764 174.374C67.2462 174.14 67.498 173.707 67.7498 174.23C68.0016 174.23 68.2534 174.266 68.5052 174.031C68.6311 173.58 68.757 173.58 68.8829 173.652C69.0088 173.49 69.1347 173.238 69.2606 173.815C69.6383 173.977 69.998 173.634 70.3937 173.544C70.7714 173.454 71.1671 173.129 71.5628 173.256C71.9585 172.552 72.3902 173.129 72.8218 173.129C72.9297 172.173 73.0376 172.895 73.1635 172.823C73.2715 172.913 73.3974 173.292 73.5053 173.057C73.7391 173.165 73.9729 173.707 74.2247 172.967C74.7643 173.039 75.2679 173.256 75.7715 173.003C76.0233 172.534 76.2571 172.985 76.4909 173.328C76.7247 173.22 76.9585 173.382 77.1924 173.147C77.4262 173.58 77.642 173.526 77.8758 173.454C77.9837 173.328 78.0916 172.967 78.1996 173.039C78.3075 173.147 78.4154 173.129 78.5233 173.49C78.7391 174.284 78.955 174.013 79.1708 173.833C79.2787 174.302 79.3866 174.843 79.4945 174.085C79.6024 173.779 79.7104 174.176 79.8183 173.707C79.9262 174.248 80.0341 173.833 80.124 174.158C80.2319 173.887 80.3399 173.779 80.4298 174.212C80.5377 173.995 80.6456 174.049 80.7356 174.103C80.8435 174.013 80.9514 174.176 81.0413 174.446C81.2571 173.725 81.455 174.32 81.6708 174.212C81.8866 174.14 82.0845 173.851 82.3003 174.392C82.5161 173.707 82.714 174.464 82.9298 174.645C83.0377 174.969 83.1456 175.023 83.2536 175.078C83.3615 175.023 83.4694 175.005 83.5773 175.222C83.7931 175.294 84.009 175.763 84.2428 175.402C84.4586 175.276 84.6924 175.24 84.9262 174.987C85.1601 174.987 85.3939 175.041 85.6277 174.735C85.8615 174.681 86.1133 174.663 86.3471 174.987C86.5989 174.933 86.8507 175.114 87.1025 175.041C87.3543 175.186 87.6241 175.474 87.8939 175.24C88.3615 175.547 88.8112 175.33 89.2428 175.33C89.4586 175.42 89.6745 175.619 89.8903 175.51C90.1061 175.51 90.304 175.132 90.5198 175.041C90.9335 174.951 91.3292 175.096 91.7428 174.861C92.1385 174.591 92.5342 175.06 92.9299 174.609C93.1278 174.609 93.3256 174.5 93.5234 174.374C93.7213 174.176 93.9191 174.338 94.117 174.14C94.5127 173.905 94.9083 174.067 95.304 174.121C95.5019 174.302 95.7177 174.194 95.9155 174.176C96.1134 173.977 96.3292 173.689 96.545 173.833C96.9767 173.869 97.4084 173.544 97.858 173.761C98.0918 174.103 98.3077 173.761 98.5415 173.761C98.7753 173.616 98.9911 173.616 99.2249 173.671C99.6926 173.346 100.142 173.598 100.61 173.671C100.844 173.4 101.077 173.743 101.311 173.4C101.545 173.238 101.779 173.256 102.013 173.472C102.48 173.364 102.948 173.544 103.416 173.779C103.883 174.121 104.351 173.887 104.819 173.959C105.052 173.869 105.286 173.941 105.52 174.013C105.754 174.121 105.988 174.23 106.221 173.977C106.455 173.815 106.689 173.797 106.923 173.833C107.157 173.941 107.39 173.941 107.624 174.103C108.092 174.103 108.578 174.248 109.045 174.067C109.495 173.671 109.944 173.887 110.376 174.121C110.808 174.121 111.257 173.454 111.689 173.977C112.121 174.5 112.552 175.078 112.984 174.013C113.416 174.392 113.829 173.689 114.261 173.743C114.675 173.057 115.106 174.067 115.52 173.652C115.934 173.418 116.347 172.985 116.761 173.4C117.175 173.815 117.588 173.364 118.002 173.093C118.416 173.472 118.829 173.057 119.225 173.003C119.639 172.624 120.034 172.209 120.448 172.877C120.862 172.877 121.257 173.039 121.671 172.624C122.175 171.903 122.696 172.498 123.2 172.408C123.452 172.859 123.704 172.678 123.973 172.444C124.225 172.48 124.495 172.155 124.747 172.209C124.999 172.534 125.268 172.931 125.52 172.083C125.772 171.542 126.042 170.947 126.294 171.885C126.545 172.354 126.815 171.704 127.067 171.65C127.337 171.885 127.588 171.506 127.858 171.975C128.128 171.614 128.38 171.307 128.65 171.452C128.919 171.686 129.189 171.109 129.441 171.506C129.711 171.578 129.981 171.506 130.25 171.885C130.52 172.245 130.79 172.209 131.06 172.047C131.401 172.534 131.725 171.885 132.067 172.155C132.409 172.552 132.732 171.686 133.074 172.227C133.29 172.913 133.524 171.885 133.74 172.227C133.848 172.011 133.955 172.372 134.081 171.849C134.189 171.885 134.297 171.488 134.423 171.56C134.531 171.289 134.639 171.145 134.765 171.686C134.873 171.56 134.981 172.227 135.107 172.408C135.448 172.48 135.772 172.263 136.114 172.318C136.455 172.263 136.779 172.498 137.121 172.408C137.571 172.245 137.984 172.191 138.38 172.48C138.578 172.751 138.776 172.678 138.973 172.444C139.171 172.209 139.351 172.083 139.531 172.029C139.891 171.939 140.25 171.812 140.61 171.614C140.952 171.416 141.294 171.632 141.635 171.434C141.977 170.983 142.319 171.488 142.661 171.362C143.002 171.686 143.362 171.488 143.74 170.929C144.099 170.712 144.495 170.983 144.891 170.82C145.286 170.622 145.7 170.568 146.15 170.802C146.743 171.109 147.283 170.73 147.804 171.019C148.056 171.019 148.326 171.217 148.578 171.362C148.83 171.506 149.099 171.578 149.387 171.307C150.412 171.596 151.384 171.831 152.319 171.452C153.272 172.137 154.189 171.109 155.089 171.127C155.988 171.614 156.887 171.217 157.787 170.496C158.686 170.442 159.567 170.351 160.484 169.738C161.384 169.558 162.319 169.377 163.254 169.016C163.722 168.962 164.208 168.818 164.693 168.493C165.179 168.421 165.682 168.295 166.186 168.493C166.69 168.096 167.211 168.06 167.751 168.223C168.29 167.591 168.83 168.439 169.387 168.367C169.909 168.024 170.395 167.303 170.862 168.367C171.33 167.645 171.762 168.764 172.193 168.692C172.607 169.558 173.021 168.421 173.416 168.962C173.812 169.648 174.19 169.359 174.549 169.287C174.927 169.918 175.287 169.269 175.646 169.684C176.006 169.666 176.366 170.333 176.744 169.991C177.103 169.612 177.481 170.315 177.877 170.153C178.254 170.045 178.65 170.423 179.064 170.658C179.477 170.496 179.909 170.351 180.359 170.802C180.808 171.037 181.276 171.289 181.78 171.091C182.337 171.235 182.877 170.532 183.434 171.181C183.992 171.524 184.531 170.73 185.089 171.163C185.647 170.911 186.186 170.838 186.744 171.055C187.301 170.496 187.841 170.64 188.398 170.892C188.956 170.838 189.513 170.333 190.053 170.712C190.611 170.748 191.168 170.442 191.726 170.514C192.283 170.929 192.841 170.423 193.398 170.46C193.956 170.243 194.514 169.503 195.071 170.207C195.629 170.279 196.186 170.387 196.762 169.936C197.319 169.395 197.895 169.846 198.452 170.189C198.938 170.496 199.388 170.153 199.837 170.55C200.287 170.64 200.701 170.315 201.114 170.514C201.528 170.478 201.906 170.099 202.301 170.225C202.499 170.658 202.679 170.279 202.859 170.423C203.039 170.64 203.219 170.874 203.399 171.055C203.758 170.874 204.118 171.506 204.46 171.452C204.801 171.416 205.161 171.524 205.503 171.704C205.845 171.921 206.186 171.776 206.546 171.867C206.888 171.885 207.247 172.137 207.607 172.354C207.967 172.714 208.327 172.787 208.722 172.48C209.1 172.462 209.496 172.227 209.891 172.913C210.305 172.895 210.719 173.129 211.15 173.31C211.582 173.4 212.05 173.418 212.517 173.238C212.895 174.085 213.273 174.121 213.65 173.761C214.028 173.472 214.406 173.039 214.801 173.31C215.179 174.049 215.575 173.598 215.953 173.887C216.33 173.689 216.726 173.598 217.104 173.328C217.481 173.436 217.859 173.526 218.219 173.4C218.596 173.508 218.956 173.292 219.316 173.472C219.694 173.851 220.053 173.743 220.395 173.743C220.737 173.869 221.079 173.472 221.384 173.851C221.708 173.671 222.014 173.815 222.338 173.851C222.643 174.067 222.949 174.32 223.255 174.338C223.561 174.248 223.866 174.951 224.19 174.482C224.514 174.681 224.82 174.41 225.161 174.771C225.503 174.843 225.845 175.312 226.204 175.258C226.564 175.222 226.942 175.961 227.356 175.005C227.805 175.168 228.237 174.933 228.686 174.771C229.118 175.258 229.568 174.933 229.999 174.915C230.431 175.492 230.881 175.348 231.312 175.312C231.744 175.096 232.194 175.547 232.643 174.717C233.093 175.529 233.579 175.673 234.118 175.096C234.64 174.933 235.197 174.609 235.773 174.609C236.348 174.915 236.96 173.31 237.571 174.32C238.183 173.941 238.812 174.212 239.442 174.572C240.071 174.861 240.701 174.266 241.331 174.735C241.96 174.591 242.572 174.627 243.165 174.645C243.759 174.464 244.352 174.446 244.892 174.627C245.449 174.59 245.971 174.518 246.456 174.897C246.942 175.637 247.392 175.691 247.805 175.583C248.201 175.979 248.561 175.727 248.867 175.384C249.406 175.276 249.946 175.005 250.485 174.915C251.025 174.915 251.564 175.132 252.104 174.915C252.644 174.5 253.183 174.969 253.705 174.987C254.244 174.753 254.766 175.222 255.305 174.735C255.845 175.005 256.367 175.06 256.906 174.879C257.446 175.637 257.967 175.168 258.489 174.753C259.011 174.663 259.55 175.24 260.072 174.645C260.593 175.186 261.115 175.799 261.636 174.879C262.158 174.464 262.68 173.725 263.183 174.41C263.705 174.013 264.208 173.761 264.73 174.969C265.234 174.302 265.755 175.601 266.259 174.825C266.762 174.374 267.266 173.977 267.77 174.933C268.273 173.959 268.759 174.464 269.244 174.338C269.73 174.663 270.216 174.338 270.701 174.663C271.187 174.374 271.673 174.681 272.14 174.5C272.608 174.518 273.093 174.59 273.561 174.049C273.885 173.815 274.208 173.923 274.514 173.869C274.82 173.815 275.126 173.725 275.432 173.418C275.737 173.364 276.043 173.111 276.349 172.931C276.655 172.444 276.978 172.714 277.302 172.769C277.626 172.552 277.95 172.678 278.309 172.3C278.651 172.191 279.011 172.047 279.388 172.282C279.766 171.831 280.144 172.426 280.557 172.083C280.971 172.66 281.403 172.318 281.852 172.083C282.086 172.336 282.302 172.642 282.518 172.354C282.734 172.209 282.95 171.903 283.165 172.137C283.381 171.867 283.597 172.029 283.813 172.029C284.029 171.867 284.245 172.66 284.46 172.263C284.676 171.812 284.892 171.506 285.09 172.011C285.306 172.155 285.522 172.642 285.737 172.426C285.953 172.065 286.169 171.794 286.385 171.794C286.601 171.596 286.817 171.903 287.05 172.498C287.32 172.877 287.572 172.859 287.842 172.949C288.094 172.985 288.363 172.949 288.615 172.787C288.867 173.274 289.119 172.931 289.371 172.714C289.622 172.714 289.874 172.336 290.126 172.444C290.378 172.318 290.63 171.722 290.863 172.48C291.115 172.3 291.349 172.769 291.601 172.318C291.853 172.408 292.086 172.263 292.32 172.408C292.554 171.542 292.806 172.318 293.04 172.011C293.273 171.921 293.507 172.083 293.741 172.209C293.975 172.155 294.209 172.209 294.442 171.957C294.676 172.39 294.91 171.325 295.144 171.812C295.378 171.488 295.612 171.109 295.827 171.398C296.061 171.56 296.295 171.235 296.511 171.091C296.745 171.055 296.96 171.235 297.194 171.325C297.428 171.596 297.644 171.434 297.878 171.199C298.112 171.163 298.327 171.343 298.561 170.748C298.795 170.207 299.011 170.604 299.245 170.442C299.478 170.081 299.694 170.333 299.928 170.189C300.378 169.558 300.827 170.225 301.277 170.207C301.727 169.792 302.176 170.207 302.626 170.207C303.076 169.485 303.525 170.369 303.993 169.936C304.443 170.099 304.91 169.576 305.378 169.936C305.845 169.431 306.313 169.161 306.781 170.117C307.068 171.145 307.356 170.333 307.626 170.478C307.896 170.189 308.166 170.405 308.417 170.478C308.687 169.918 308.939 170.532 309.227 170.838C309.497 171.362 309.784 170.784 310.108 170.802C310.522 170.766 310.917 170.947 311.331 170.892C311.727 169.991 312.141 171.362 312.536 170.892C312.932 170.351 313.328 170.586 313.723 170.802C314.119 169.558 314.497 170.496 314.874 170.604C315.252 171.596 315.63 170.027 315.989 170.676C316.349 169.973 316.709 169.323 317.051 170.081C317.392 169.666 317.734 169.413 318.04 169.54C318.364 169.684 318.669 168.475 318.957 169.485C319.245 170.027 319.569 169.774 319.91 169.792C320.252 169.359 320.612 169.161 320.989 168.926C321.367 168.764 321.763 169.197 322.159 168.71C322.554 168.457 322.968 168.62 323.382 168.511C323.795 167.808 324.209 168.295 324.623 167.988C325.036 167.808 325.432 168.674 325.828 168.385C326.223 168.692 326.601 168.06 326.979 168.295C327.338 167.898 327.698 168.367 328.022 168.674C328.364 169.107 328.651 169.179 328.921 169.034C329.191 169.215 329.425 169.305 329.659 169.377C329.91 169.828 330.162 169.431 330.468 169.738C330.774 169.991 331.133 169.395 331.565 169.936C331.907 170.568 332.249 170.387 332.608 170.369C332.95 170.387 333.31 170.081 333.669 169.936C334.029 169.558 334.389 169.756 334.749 170.117C335.108 169.936 335.468 170.225 335.828 169.828C336.367 169.179 336.871 169.449 337.339 169.63C337.806 170.261 338.22 170.802 338.616 170.135C339.011 170.027 339.371 170.117 339.713 170.423C340.054 170.189 340.378 170.099 340.702 170.874C341.026 170.64 341.331 170.766 341.637 171.091C341.943 171.867 342.249 170.983 342.572 171.776C342.896 171.831 343.22 171.993 343.562 172.3C343.903 171.65 344.263 173.22 344.659 172.57C345.054 172.444 345.468 174.103 345.936 172.913C346.403 173.238 346.889 173.671 347.429 172.967C347.752 172.895 348.076 173.328 348.382 173.093C348.688 173.562 349.011 172.3 349.317 172.913C349.623 172.949 349.929 172.534 350.252 172.805C350.558 172.3 350.864 173.183 351.188 172.732C351.493 172.137 351.817 172.282 352.123 172.841C352.429 173.256 353.796 174.59 354.119 174.933C354.623 174.554 353.903 175.601 354.389 175.745C354.857 175.871 355.324 175.547 355.774 175.673C356.224 175.384 356.655 175.294 357.069 175.402C357.483 175.474 357.896 175.709 358.292 176.07C359.083 176.376 359.803 177.26 360.486 176.701C361.17 176.827 361.961 178.631 362.519 178.721C363.094 178.992 363.346 180.616 363.814 180.886V60.133H-0.668045ZM16.6882 165.174C12.9472 165.174 9.92557 162.144 9.92557 158.391C9.92557 154.639 12.9472 151.609 16.6882 151.609C20.4293 151.609 23.4509 154.639 23.4509 158.391C23.4509 162.144 20.4293 165.174 16.6882 165.174ZM16.6882 138.512C12.9472 138.512 9.92557 135.482 9.92557 131.73C9.92557 127.978 12.9472 124.947 16.6882 124.947C20.4293 124.947 23.4509 127.978 23.4509 131.73C23.4509 135.482 20.4293 138.512 16.6882 138.512ZM16.6882 111.851C12.9472 111.851 9.92557 108.82 9.92557 105.068C9.92557 101.316 12.9472 98.2855 16.6882 98.2855C20.4293 98.2855 23.4509 101.316 23.4509 105.068C23.4509 108.82 20.4293 111.851 16.6882 111.851ZM16.6882 85.1892C12.9472 85.1892 9.92557 82.1586 9.92557 78.4065C9.92557 74.6544 12.9472 71.6238 16.6882 71.6238C20.4293 71.6238 23.4509 74.6544 23.4509 78.4065C23.4509 82.1586 20.4293 85.1892 16.6882 85.1892Z" fill="#F8EBAA"/>
<path d="M15.6897 166.081L15.6897 178.632" stroke="#76BFC7" stroke-width="0.47069"/>
<path d="M31.3793 166.081L31.3793 178.632" stroke="#76BFC7" stroke-width="0.47069"/>
<path d="M47.069 166.081L47.069 177.586" stroke="#FF7BAC" stroke-width="0.836782"/>
<path d="M62.7586 166.08L62.7586 182.816" stroke="#76BFC7" stroke-width="0.47069"/>
<path d="M78.4483 166.081L78.4483 176.54" stroke="#76BFC7" stroke-width="0.47069"/>
<path d="M94.1379 166.081L94.1379 178.632" stroke="#76BFC7" stroke-width="0.47069"/>
<path d="M109.828 166.081L109.828 183.862" stroke="#76BFC7" stroke-width="0.47069"/>
<path d="M125.517 166.081L125.517 176.54" stroke="#76BFC7" stroke-width="0.47069"/>
<path d="M141.207 166.081L141.207 177.586" stroke="#76BFC7" stroke-width="0.47069"/>
<path d="M156.897 166.081L156.897 172.356" stroke="#76BFC7" stroke-width="0.47069"/>
<path d="M172.586 166.081L172.586 173.403" stroke="#76BFC7" stroke-width="0.47069"/>
<path d="M188.276 166.081L188.276 179.678" stroke="#76BFC7" stroke-width="0.47069"/>
<path d="M203.966 166.081L203.966 174.448" stroke="#76BFC7" stroke-width="0.47069"/>
<path d="M219.655 166.081L219.655 175.494" stroke="#76BFC7" stroke-width="0.47069"/>
<path d="M235.345 166.081L235.345 179.678" stroke="#76BFC7" stroke-width="0.47069"/>
<path d="M251.034 166.081L251.034 177.586" stroke="#76BFC7" stroke-width="0.47069"/>
<path d="M266.724 166.081L266.724 178.632" stroke="#76BFC7" stroke-width="0.47069"/>
<path d="M282.414 166.081L282.414 181.77" stroke="#76BFC7" stroke-width="0.47069"/>
<path d="M298.103 166.081L298.103 178.632" stroke="#76BFC7" stroke-width="0.47069"/>
<path d="M313.793 166.081L313.793 175.494" stroke="#76BFC7" stroke-width="0.47069"/>
<path d="M329.483 166.081L329.483 178.632" stroke="#76BFC7" stroke-width="0.47069"/>
<path d="M345.172 166.081L345.172 179.678" stroke="#76BFC7" stroke-width="0.47069"/>
<path d="M360.862 166.081L360.862 178.632" stroke="#76BFC7" stroke-width="0.47069"/>
<g filter="url(#filter0_d_1_236)">
<path d="M11.3282 179.731C11.9038 179.767 12.4793 180.11 13.0369 180.291C13.6124 181.481 14.188 181.283 14.7455 179.93C15.3211 179.371 15.8966 179.334 16.4542 180.327C17.0297 180.886 17.6053 180.687 18.1628 179.948C18.7384 178.126 19.3139 179.208 19.8715 180.363C20.447 180.922 21.0226 181.03 21.5801 180.741C22.1557 180.633 22.7312 179.858 23.2888 180.399C23.8643 181.229 24.4399 179.425 24.9974 179.876C25.573 181.12 26.1485 178.865 26.7061 180.435C27.2816 181.21 27.8572 180.651 28.4147 180.453C28.7025 180.579 28.9903 181.698 29.278 180.579C29.5658 179.244 29.8536 180.236 30.1414 180.471C30.7169 179.876 31.2924 179.912 31.85 180.669C32.1378 181.716 32.4255 179.497 32.7133 180.363C33.0011 181.21 33.2889 179.912 33.5766 180.507C33.8644 180.002 34.1522 181.174 34.44 181.463C34.7277 182.185 35.0155 181.192 35.3033 180.597C35.591 180.507 35.8788 181.048 36.1666 181.607C36.4544 180.994 36.7421 180.417 37.0299 180.543C37.6054 179.84 38.181 180.832 38.7386 180.327C39.3141 180.579 39.8896 178.072 40.4472 180.597C41.0227 181.391 41.5983 180.218 42.1559 180.218C42.7314 180.778 43.3069 181.229 43.8645 180.633C44.2962 180.363 44.7278 180.561 45.1775 180.687C45.6091 180.2 46.0588 180.597 46.4904 180.687C46.7063 180.327 46.9221 179.984 47.1379 180.218C47.3537 181.048 47.5696 179.749 47.7854 181.156C48.2171 181.012 48.6487 179.858 49.0804 180.886C49.512 180.633 49.9437 181.986 50.3574 181.12C50.789 181.283 51.2027 180.254 51.6164 181.373C51.8322 180.579 52.03 180.218 52.2459 180.76C52.4437 181.156 52.6595 180.579 52.8574 181.68C53.2711 180.327 53.6667 184.061 54.0624 182.257C54.4941 183.429 54.9257 182.744 55.3394 183.483C55.5553 183.014 55.7531 183.7 55.9689 184.205C56.1668 184.494 56.3826 184.945 56.5804 183.736C56.7783 182.924 56.9941 184.025 57.1919 182.762C57.3898 181.445 57.6056 182.329 57.8035 183.628C58.0013 184.566 58.2171 186.243 58.415 184.331C58.6308 186.496 58.8287 185.323 59.0445 185.251C59.4582 184.71 59.8898 182.491 60.3395 185.684C60.7891 186.893 61.2388 185.576 61.7064 186.279C61.8862 188.011 62.0481 183.267 62.21 184.945C62.3719 184.494 62.5517 183.718 62.7136 186.658C62.8755 188.462 63.0553 189.039 63.2172 187.723C63.3791 188.661 63.5409 186.694 63.7028 186.424C64.0265 182.906 64.3503 188.841 64.674 185.901C64.8359 183.862 64.9978 185.865 65.1596 184.999C65.2316 186.424 65.3215 183.664 65.3935 184.638C65.4654 183.592 65.5553 181.752 65.6273 186.081C65.933 186.694 66.2568 182.708 66.5625 186.009C66.8683 181.734 67.1741 182.149 67.4798 185.359C67.7136 183.556 67.9295 183.429 68.1633 184.836C68.3971 183.032 68.6129 185.612 68.8467 184.62C69.2964 186.983 69.746 183.664 70.1957 183.772C70.4115 185.648 70.6453 184.692 70.8611 183.231C71.077 180.146 71.3108 181.03 71.5266 182.636C71.9763 181.914 72.4259 184.854 72.8755 181.914C73.1094 181.914 73.3252 182.058 73.559 181.571C73.7928 183.159 74.0087 183.357 74.2425 181.156C74.6921 183.556 75.1597 180.399 75.6274 180.128C76.095 181.914 76.5626 182.076 77.0482 179.731C77.2821 183.429 77.5339 179.731 77.7677 179.389C78.0195 182.004 78.2533 179.641 78.5051 178.775C78.667 177.116 78.8468 180.128 79.0087 178.865C79.1706 181.192 79.3504 179.587 79.5123 178.595C79.854 177.26 80.1778 178.216 80.5195 178.27C80.6814 180.002 80.8612 179.803 81.0231 179.587C81.185 180.76 81.3648 179.821 81.5267 178.703C81.6886 178.775 81.8684 179.515 82.0303 179.425C82.1922 178.541 82.372 179.208 82.5339 178.09C82.8756 176.394 83.1994 177.603 83.5411 177.747C83.8828 177.729 84.2066 176.899 84.5483 178.198C84.8001 176.971 85.0519 179.262 85.3037 177.982C85.5555 178.072 85.8073 179.118 86.0591 178.451C86.3109 179.551 86.5627 179.352 86.7965 179.569C86.9224 181.283 87.0483 181.355 87.1742 180.128C87.3001 181.048 87.426 180.796 87.5519 178.829C87.8037 180.489 88.0555 178.649 88.2894 180.218C88.5412 178.108 88.775 178.865 89.0268 179.515C89.2786 179.569 89.5124 179.731 89.7642 179.064C90.016 180.597 90.2498 179.425 90.5016 179.93C90.9872 180.128 91.4728 179.533 91.9585 180.363C92.2103 180.904 92.4441 180.615 92.6959 181.283C92.9297 181.896 93.1815 182.599 93.4153 181.373C93.5412 181.517 93.6491 181.842 93.775 182.347C93.9009 182.437 94.0088 182.13 94.1347 183.303C94.3685 183.357 94.6203 183.898 94.8542 182.545C95.088 180.218 95.3398 182.491 95.5736 182.167C95.8074 182.942 96.0412 183.574 96.293 183.032C96.5268 183.844 96.7606 184.548 96.9945 185.035C97.2283 184.133 97.4621 184.079 97.6959 184.421C98.1635 182.275 98.6312 185.305 99.0988 184.782C99.3326 185.035 99.5664 185.305 99.8002 184.494C100.034 183.772 100.268 183.898 100.484 185.666C100.951 186.063 101.401 186.261 101.851 186.514C102.048 185.414 102.246 187.596 102.444 187.668C102.642 187.272 102.84 187.47 103.038 187.542C103.236 187.885 103.433 188.895 103.649 186.875C103.847 185.594 104.063 188.101 104.279 187.795C104.495 188.967 104.692 188.751 104.908 188.137C105.124 188.895 105.34 188.516 105.556 189.13C105.664 189.418 105.772 190.627 105.879 190.627C105.987 191.006 106.095 190.374 106.203 189.599C106.311 190.392 106.419 190.915 106.545 190.843C106.653 190.771 106.761 190.068 106.887 188.426C107.336 188.733 107.786 186.893 108.218 187.777C108.649 187.091 109.099 188.39 109.513 187.975C109.728 187.975 109.944 191.042 110.142 188.643C110.358 185.901 110.556 190.05 110.772 187.344C111.185 189.454 111.581 187.019 111.977 186.785C112.426 187.145 112.858 185.215 113.29 186.604C113.397 185.053 113.505 185.684 113.613 186.64C113.721 187.254 113.829 187.759 113.937 185.919C114.153 185.991 114.369 185.63 114.585 185.089C114.692 185.215 114.8 184.187 114.908 183.989C115.016 183.61 115.124 182.744 115.232 183.592C115.448 181.625 115.664 185.107 115.88 183.411C115.987 183.231 116.095 181.734 116.203 182.708C116.311 182.798 116.419 183.195 116.527 183.519C116.743 184.097 116.959 182.996 117.174 183.249C117.39 182.058 117.606 182.076 117.822 182.563C118.038 183.032 118.254 182.852 118.469 182.924C118.577 182.022 118.685 180.363 118.793 180.741C118.901 181.319 119.009 181.03 119.117 182.022C119.225 178.938 119.333 183.231 119.441 183.069C119.549 182.473 119.657 184.025 119.764 181.445C119.872 182.022 119.98 180.489 120.088 180.417C120.196 180.2 120.304 179.244 120.412 179.731C120.52 180.489 120.628 179.515 120.736 178.469C120.844 178.072 120.952 177.386 121.059 179.803C121.275 177.134 121.491 180.669 121.725 179.028C121.833 178.432 121.941 178.902 122.049 178.054C122.157 178.487 122.264 177.963 122.39 179.821C122.606 180.417 122.84 179.731 123.056 178.956C123.272 179.298 123.505 176.629 123.739 179.262C123.973 177.855 124.189 176.989 124.423 177.982C124.657 176.051 124.872 177.404 125.106 178.541C125.34 178.541 125.574 180.922 125.808 179.785C126.041 180.507 126.275 181.355 126.509 178.721C126.743 178.324 126.977 179.371 127.211 178.811C127.336 179.046 127.444 178.036 127.57 177.422C127.696 175.222 127.804 176.538 127.93 177.783C128.056 177.476 128.164 178.559 128.29 179.515C128.416 179.695 128.524 178.613 128.649 178.469C128.703 178.974 128.775 180.002 128.829 179.136C128.883 179.389 128.955 178.036 129.009 177.963C129.135 178.775 129.261 178.451 129.387 177.783C129.639 177.44 129.89 176.899 130.142 177.098C130.394 176.34 130.646 177.098 130.898 177.693C131.221 176.827 131.545 175.673 131.869 177.837C132.031 177.783 132.193 177.783 132.354 176.52C132.516 175.276 132.678 175.763 132.84 178.054C133.164 179.858 133.47 175.889 133.793 178.306C134.117 177.982 134.423 179.533 134.729 178.595C135.034 178.649 135.358 179.443 135.664 178.595C135.97 177.675 136.293 179.226 136.599 179.154C137.067 179.443 137.552 178.306 138.02 179.497C138.146 176.791 138.254 176.25 138.38 177.873C138.506 178.234 138.614 178.162 138.739 178.613C138.973 178.901 139.225 180.02 139.477 179.695C139.729 179.966 139.962 180.164 140.214 179.749C140.466 178.324 140.7 180.146 140.952 180.038C141.203 180.092 141.437 179.208 141.671 179.01C141.905 179.244 142.157 176.971 142.391 179.551C142.624 180.868 142.858 181.156 143.11 181.247C143.344 181.192 143.578 181.283 143.811 180.254C144.045 177.332 144.279 178.36 144.513 179.713C144.747 181.102 144.981 180.741 145.214 178.793C145.448 179.587 145.682 179.136 145.916 178.414C146.15 175.564 146.383 176.863 146.617 178.018C146.851 177.855 147.085 175.113 147.319 177.909C147.552 176.466 147.786 178.974 148.002 177.657C148.236 175.997 148.47 175.817 148.686 176.376C148.919 175.24 149.153 177.386 149.369 176.701C149.603 176.953 149.837 176.917 150.052 177.278C150.286 177.332 150.52 177.549 150.754 176.412C150.988 175.943 151.222 173.382 151.455 175.456C151.689 177.909 151.923 176.43 152.157 175.799C152.265 176.845 152.391 175.204 152.517 175.979C152.642 175.456 152.75 176.16 152.876 174.302C153.002 173.472 153.11 173.345 153.236 173.833C153.362 174.446 153.47 175.041 153.596 175.24C153.829 174.284 154.063 174.41 154.315 173.923C154.549 172.498 154.801 173.057 155.035 174.211C155.268 172.588 155.52 172.281 155.754 172.353C155.988 172.768 156.24 173.436 156.491 174.446C156.779 174.933 157.067 175.24 157.355 175.276C157.642 175.312 157.93 175.095 158.218 174.518C158.794 172.534 159.351 176.665 159.927 174.211C160.502 176.015 161.06 175.745 161.617 173.598C162.175 174.572 162.732 172.804 163.308 174.644C163.866 175.6 164.423 173.382 164.981 174.897C165.538 171.343 166.096 177.476 166.653 175.582C167.211 171.542 167.768 173.598 168.308 174.193C168.866 176.178 169.405 175.925 169.963 176.845C170.52 174.067 171.06 177.801 171.617 177.855C172.175 175.691 172.715 175.673 173.272 178.27C173.83 180.669 174.387 176.737 174.927 178.162C175.484 180.128 176.042 174.987 176.599 179.677C177.157 183.447 177.715 182.401 178.272 180.976C178.83 182.347 179.387 180.976 179.963 180.904C180.251 179.605 180.52 179.894 180.808 180.435C181.096 180.976 181.384 181.752 181.653 181.391C182.229 181.445 182.787 177.224 183.362 181.77C183.65 182.509 183.938 182.672 184.225 182.365C184.513 181.247 184.801 182.275 185.089 182.401C185.377 183.375 185.664 183.916 185.97 183.159C186.114 183.754 186.258 183.285 186.402 183.375C186.546 182.654 186.69 182.69 186.833 182.094C187.103 182.744 187.391 183.682 187.661 181.698C187.733 183.014 187.805 182.275 187.877 182.996C187.949 182.599 188.02 182.906 188.092 182.293C188.236 182.924 188.362 181.571 188.506 182.022C188.776 179.894 189.064 182.852 189.333 181.806C189.603 181.806 189.891 179.749 190.161 181.824C190.305 182.112 190.431 181.391 190.574 180.633C190.718 180.02 190.844 179.912 190.988 181.517C191.258 181.698 191.528 182.365 191.797 182.672C192.067 182.419 192.337 181.337 192.607 182.852C192.751 183.195 192.877 182.383 193.021 181.247C193.164 179.785 193.29 181.788 193.434 181.102C193.578 180.507 193.704 180.579 193.848 181.229C193.992 182.094 194.118 182.112 194.262 179.785C194.531 181.048 194.801 179.803 195.071 180.615C195.61 180.778 196.15 180.778 196.69 180.056C196.959 180.363 197.229 179.208 197.499 179.407C197.769 180.074 198.039 179.587 198.308 179.01C198.578 178.469 198.848 179.641 199.118 179.551C199.387 179.497 199.657 179.244 199.909 178.865C200.449 178.144 200.97 179.587 201.51 178.595C201.78 178.18 202.049 178.252 202.301 178.288C202.571 178.324 202.841 178.198 203.093 177.675C203.362 177.152 203.632 176.376 203.884 176.629C204.154 178.451 204.423 175.546 204.675 176.953C205.215 177.603 205.736 177.494 206.276 176.647C206.546 175.853 206.816 174.951 207.067 177.062C207.337 176.791 207.607 177.603 207.859 176.358C208.398 177.549 208.92 178.883 209.46 175.943C209.999 177.494 210.521 176.43 211.06 175.654C211.33 175.889 211.6 178.541 211.87 176.322C212.139 173.634 212.409 174.753 212.679 175.709C212.949 176.737 213.219 177.747 213.488 176.538C213.758 175.059 214.028 178.649 214.298 176.069C214.567 176.719 214.837 176.629 215.107 176.773C215.377 177.224 215.647 176.863 215.916 176.105C216.168 176.142 216.42 178.18 216.654 177.17C216.906 176.863 217.139 174.969 217.391 176.538C217.517 175.059 217.625 175.42 217.751 175.907C217.877 175.384 217.985 176.845 218.111 176.809C218.344 178.631 218.596 177.494 218.83 177.116C219.298 176.719 219.783 177.386 220.233 177.801C220.701 178.198 221.168 176.863 221.618 178.523C222.086 179.93 222.535 179.352 223.003 178.577C223.237 179.371 223.452 178.541 223.686 178.811C223.92 178.487 224.136 179.28 224.37 180.056C224.604 180.814 224.819 180.832 225.053 181.192C225.287 181.391 225.503 181.752 225.737 180.399C225.97 179.659 226.204 179.316 226.42 180.814C226.528 179.154 226.654 180.525 226.762 181.283C226.87 181.553 226.996 182.13 227.104 181.463C227.337 182.185 227.571 182.888 227.805 182.69C228.039 182.87 228.273 182.78 228.506 182.004C228.74 181.698 228.974 183.501 229.226 182.978C229.46 184.079 229.711 183.411 229.945 182.491C230.179 181.77 230.431 182.672 230.683 183.123C230.935 184.223 231.168 183.646 231.42 184.151C231.672 185.684 231.924 187.163 232.176 185.089C232.301 183.429 232.427 186.261 232.553 184.782C232.679 185.017 232.805 184.007 232.931 182.87C233.399 182.329 233.848 182.762 234.316 183.375C234.783 181.68 235.233 183.195 235.683 182.491C235.917 182.491 236.132 181.337 236.366 181.553C236.6 181.698 236.816 180.561 237.05 181.553C237.499 182.347 237.949 181.752 238.399 181.698C239.298 181.138 240.197 180.958 241.096 180.85C241.996 179.082 242.895 178.757 243.794 180.309C244.244 180.489 244.694 179.785 245.143 180.254C245.593 179.695 246.043 181.138 246.51 180.417C246.978 182.13 247.409 182.167 247.841 180.886C248.273 181.806 248.686 181.391 249.1 181.391C249.514 182.293 249.909 183.682 250.323 181.607C250.521 179.912 250.719 180.327 250.917 181.932C251.115 183.105 251.312 184.421 251.51 182.888C251.708 181.427 251.906 182.509 252.104 183.032C252.302 183.664 252.499 182.563 252.697 184.079C253.093 184.025 253.507 182.816 253.92 184.385C254.118 186.893 254.334 182.834 254.55 183.88C254.766 184.476 254.963 184.674 255.179 184.927C255.611 184.512 256.043 182.744 256.51 185.45C256.69 185.937 256.87 185.865 257.05 186.55C257.23 187.001 257.41 186.442 257.589 186.063C257.949 185.233 258.309 184.656 258.669 185.702C259.028 186.73 259.388 188.192 259.73 185.432C260.089 184.367 260.449 184.439 260.791 185.45C261.151 186.045 261.492 185.883 261.852 185.594C262.212 186.171 262.553 185.594 262.913 184.854C263.183 184.331 263.435 184.476 263.705 184.62C263.974 184.764 264.226 184.854 264.496 184.241C265.018 183.7 265.557 184.999 266.079 183.556C266.6 183.556 267.14 183.772 267.661 182.852C268.201 182.058 268.723 181.463 269.262 182.185C269.802 182.545 270.323 181.427 270.863 181.337C271.402 181.661 271.942 182.347 272.482 181.192C273.021 180.976 273.561 179.966 274.118 180.741C274.658 180.85 275.215 180.489 275.773 181.03C276.241 179.803 276.69 181.968 277.14 181.301C277.59 179.84 278.021 182.383 278.435 181.734C278.867 179.533 279.28 182.78 279.694 182.239C279.892 183.411 280.108 181.77 280.305 181.824C280.503 181.283 280.719 183.429 280.917 182.978C281.331 185.792 281.726 181.968 282.122 183.628C282.32 184.908 282.518 185.72 282.716 184.728C282.913 186.045 283.111 182.906 283.309 184.476C283.507 185.576 283.705 184.782 283.921 185.54C284.118 186.785 284.316 183.808 284.532 185.865C284.73 187.308 284.946 187.668 285.144 186.604C285.341 186.767 285.557 186.352 285.755 185.901C285.971 184.62 286.169 185.72 286.385 185.919C286.6 185.035 286.816 188.137 287.032 187.109C287.464 186.153 287.895 187.236 288.345 186.965C288.615 186.893 288.903 187.686 289.172 187.632C289.442 187.614 289.712 187.434 290 187.326C290.27 185.63 290.539 187.019 290.827 186.514C291.097 186.496 291.367 186.785 291.636 187.488C291.906 186.785 292.176 186.442 292.446 186.676C292.716 186.911 292.985 187.38 293.255 187.199C293.795 187.416 294.334 187.055 294.874 187.145C295.414 188.21 295.953 187.452 296.493 186.785C297.032 186.514 297.572 185.973 298.111 186.171C299.191 186.947 300.252 184.421 301.331 184.782C301.87 184.512 302.41 184.205 302.932 183.916C303.471 183.628 304.011 183.97 304.532 183.141C304.802 183.61 305.072 183.195 305.342 183.014C305.611 182.293 305.881 182.527 306.151 182.311C306.421 182.491 306.691 181.661 306.96 181.878C307.23 179.479 307.5 183.249 307.77 181.499C308.04 180.868 308.309 179.785 308.579 180.76C308.849 179.677 309.119 180.651 309.388 180.723C309.928 179.84 310.468 182.437 311.007 180.002C311.547 181.283 312.086 179.984 312.644 179.821C312.914 180.381 313.183 177.296 313.453 179.316C313.723 178.829 313.993 177.729 314.281 178.883C314.82 181.174 315.378 179.136 315.935 178.721C316.493 178.252 317.032 179.894 317.59 178.342C318.148 177.765 318.705 176.917 319.263 178.396C319.82 178.541 320.378 178.505 320.953 178.577C321.403 180.002 321.853 179.641 322.284 179.208C322.716 178.775 323.148 178.27 323.579 179.389C324.425 183.087 325.252 179.389 326.079 180.561C326.493 181.986 326.907 182.094 327.302 181.21C327.716 180.651 328.112 181.409 328.525 181.86C328.939 180.327 329.353 180.345 329.766 181.878C330.18 182.581 330.594 182.257 331.025 183.032C331.457 184.169 331.871 182.329 332.32 183.375C332.752 182.112 333.202 182.834 333.651 183.826C334.173 183.934 334.694 185.432 335.234 184.295C335.756 184.097 336.277 183.772 336.799 184.061C337.32 183.952 337.842 184.476 338.364 184.259C338.885 184.133 339.407 183.592 339.928 183.646C340.45 183.05 340.971 184.079 341.493 183.411C342.015 183.718 342.536 183.574 343.058 182.816C343.31 181.95 343.579 181.878 343.831 182.004C344.083 180.453 344.353 182.401 344.605 182.239C344.856 182.167 345.126 182.437 345.378 182.455C345.63 182.239 345.9 183.303 346.151 181.806C346.403 180.994 346.673 182.437 346.925 182.87C347.177 183.123 347.446 181.21 347.698 181.842C347.95 183.195 348.22 180.922 348.472 182.726C348.723 181.661 348.993 182.563 349.245 180.85C349.497 182.257 349.767 180.976 350.036 179.425C350.306 176.773 350.576 181.048 350.846 179.551C351.115 177.206 351.385 176.791 351.673 178.613C351.943 179.028 352.231 178.234 352.5 180.236C352.77 180.958 353.058 180.345 353.328 180.11C353.615 180.182 353.885 179.984 354.173 180.543C354.731 180.309 355.288 181.084 355.828 180.164C356.367 179.226 356.925 178.956 357.446 180.11C357.968 180.615 358.49 181.247 358.993 180.778C359.982 180.922 359.731 178.09 360.54 179.641C361.331 181.066 362.914 180.236 363.436 180.832C362.968 180.561 362.716 178.938 362.141 178.667C361.565 178.577 360.774 176.773 360.108 176.647C359.425 177.206 358.705 176.322 357.914 176.015C357.518 175.654 357.123 175.42 356.691 175.348C356.277 175.24 355.846 175.348 355.396 175.618C354.946 175.51 354.497 175.835 354.011 175.691C353.544 175.528 354.245 174.5 353.741 174.879C353.418 174.536 352.069 173.219 351.745 172.786C351.439 172.227 351.115 172.083 350.81 172.678C350.504 173.129 350.198 172.245 349.874 172.75C349.569 172.48 349.263 172.895 348.939 172.858C348.633 172.245 348.31 173.508 348.004 173.039C347.698 173.291 347.374 172.858 347.051 172.913C346.511 173.634 346.007 173.183 345.558 172.858C345.09 174.049 344.677 172.389 344.281 172.516C343.885 173.165 343.525 171.596 343.184 172.245C342.842 171.938 342.518 171.794 342.194 171.722C341.871 170.928 341.565 171.812 341.259 171.036C340.953 170.694 340.648 170.567 340.324 170.82C340 170.044 339.676 170.135 339.335 170.369C338.993 170.062 338.633 169.954 338.238 170.08C337.842 170.748 337.428 170.207 336.961 169.575C336.493 169.413 336.007 169.124 335.45 169.774C335.09 170.153 334.73 169.882 334.371 170.062C334.011 169.702 333.651 169.503 333.292 169.882C332.932 170.026 332.572 170.333 332.23 170.315C331.889 170.315 331.529 170.513 331.187 169.882C330.756 169.341 330.396 169.936 330.09 169.684C329.784 169.377 329.515 169.774 329.281 169.323C329.029 169.251 328.795 169.16 328.543 168.98C328.274 169.124 328.004 169.052 327.644 168.619C327.32 168.313 326.961 167.862 326.601 168.24C326.241 168.006 325.845 168.637 325.45 168.331C325.054 168.619 324.658 167.753 324.245 167.934C323.831 168.258 323.417 167.753 323.004 168.457C322.59 168.565 322.176 168.385 321.781 168.655C321.385 169.142 320.989 168.709 320.612 168.872C320.234 169.106 319.874 169.305 319.532 169.738C319.191 169.738 318.867 169.99 318.579 169.431C318.291 168.403 317.968 169.629 317.662 169.485C317.338 169.359 317.014 169.611 316.673 170.026C316.331 169.251 315.971 169.918 315.612 170.622C315.252 169.972 314.874 171.542 314.496 170.549C314.119 170.441 313.741 169.485 313.345 170.748C312.95 170.549 312.554 170.297 312.158 170.838C311.763 171.325 311.349 169.954 310.953 170.838C310.54 170.892 310.144 170.712 309.73 170.748C309.424 170.73 309.137 171.307 308.849 170.784C308.579 170.477 308.309 169.864 308.04 170.423C307.77 170.369 307.518 170.153 307.248 170.423C306.978 170.279 306.709 171.091 306.403 170.062C305.935 169.124 305.468 169.395 305 169.882C304.532 169.521 304.083 170.026 303.615 169.882C303.165 170.315 302.698 169.431 302.248 170.153C301.798 170.153 301.349 169.72 300.899 170.153C300.45 170.153 300 169.503 299.55 170.135C299.316 170.279 299.101 170.026 298.867 170.387C298.633 170.531 298.417 170.153 298.183 170.694C297.949 171.307 297.734 171.127 297.5 171.145C297.266 171.361 297.05 171.524 296.816 171.271C296.583 171.199 296.367 171 296.133 171.036C295.899 171.181 295.683 171.506 295.449 171.343C295.216 171.055 294.982 171.433 294.766 171.758C294.532 171.271 294.298 172.335 294.065 171.902C293.831 172.173 293.597 172.101 293.363 172.155C293.129 172.029 292.896 171.866 292.662 171.956C292.428 172.245 292.176 171.487 291.942 172.353C291.708 172.209 291.457 172.353 291.223 172.263C290.971 172.714 290.737 172.245 290.485 172.425C290.234 171.668 290 172.263 289.748 172.389C289.496 172.281 289.244 172.678 288.993 172.66C288.741 172.895 288.489 173.237 288.237 172.732C287.985 172.895 287.716 172.949 287.464 172.895C287.212 172.804 286.942 172.84 286.672 172.444C286.457 171.866 286.223 171.56 286.007 171.74C285.791 171.74 285.575 172.029 285.359 172.371C285.144 172.588 284.928 172.101 284.712 171.956C284.496 171.451 284.28 171.758 284.082 172.209C283.867 172.606 283.651 171.812 283.435 171.975C283.219 171.975 283.003 171.812 282.787 172.083C282.572 171.848 282.356 172.137 282.14 172.299C281.924 172.588 281.69 172.299 281.475 172.029C281.025 172.245 280.593 172.606 280.18 172.029C279.766 172.389 279.388 171.776 279.01 172.227C278.633 172.011 278.273 172.137 277.931 172.245C277.59 172.624 277.248 172.498 276.924 172.714C276.6 172.642 276.295 172.371 275.971 172.876C275.665 173.057 275.359 173.309 275.054 173.364C274.748 173.67 274.442 173.778 274.136 173.815C273.831 173.869 273.507 173.76 273.183 173.995C272.715 174.536 272.248 174.464 271.762 174.446C271.295 174.626 270.809 174.32 270.323 174.608C269.838 174.265 269.352 174.608 268.866 174.284C268.381 174.41 267.877 173.887 267.392 174.879C266.888 173.923 266.384 174.32 265.881 174.771C265.377 175.546 264.874 174.247 264.352 174.915C263.848 173.688 263.327 173.959 262.805 174.356C262.284 173.67 261.78 174.41 261.259 174.825C260.737 175.763 260.215 175.131 259.694 174.59C259.172 175.185 258.651 174.59 258.111 174.698C257.589 175.113 257.05 175.582 256.528 174.825C255.989 175.005 255.467 174.951 254.928 174.68C254.388 175.167 253.866 174.68 253.327 174.933C252.787 174.915 252.248 174.446 251.726 174.861C251.186 175.095 250.647 174.879 250.107 174.861C249.568 174.951 249.028 175.222 248.489 175.33C248.183 175.673 247.841 175.925 247.427 175.528C247.032 175.636 246.582 175.6 246.079 174.843C245.593 174.464 245.071 174.536 244.514 174.572C243.956 174.392 243.381 174.428 242.787 174.59C242.194 174.59 241.564 174.554 240.953 174.68C240.323 174.211 239.694 174.807 239.064 174.518C238.435 174.157 237.805 173.887 237.194 174.265C236.582 173.273 235.971 174.861 235.395 174.554C234.819 174.554 234.262 174.879 233.74 175.041C233.219 175.618 232.715 175.456 232.265 174.662C231.816 175.492 231.384 175.041 230.935 175.258C230.503 175.276 230.053 175.438 229.622 174.861C229.19 174.879 228.74 175.222 228.309 174.716C227.877 174.879 227.427 175.113 226.978 174.951C226.582 175.907 226.204 175.167 225.827 175.204C225.467 175.258 225.125 174.771 224.783 174.716C224.442 174.338 224.136 174.626 223.812 174.428C223.488 174.897 223.183 174.193 222.877 174.284C222.571 174.284 222.265 174.013 221.96 173.796C221.654 173.742 221.33 173.616 221.006 173.796C220.683 173.418 220.359 173.815 220.017 173.688C219.675 173.688 219.316 173.796 218.938 173.418C218.578 173.237 218.219 173.454 217.841 173.345C217.463 173.472 217.103 173.4 216.726 173.273C216.348 173.544 215.97 173.634 215.575 173.833C215.197 173.544 214.801 173.995 214.424 173.255C214.046 172.985 213.65 173.418 213.272 173.706C212.895 174.067 212.517 174.031 212.139 173.183C211.654 173.364 211.204 173.345 210.772 173.255C210.341 173.057 209.909 172.822 209.513 172.858C209.1 172.173 208.722 172.407 208.344 172.425C207.967 172.75 207.589 172.66 207.229 172.299C206.87 172.083 206.51 171.83 206.168 171.812C205.826 171.722 205.467 171.866 205.125 171.65C204.783 171.487 204.441 171.361 204.082 171.397C203.74 171.451 203.38 170.802 203.021 171C202.841 170.82 202.661 170.586 202.481 170.369C202.301 170.243 202.103 170.604 201.923 170.171C201.546 170.026 201.15 170.423 200.736 170.459C200.323 170.261 199.909 170.586 199.459 170.495C199.01 170.098 198.56 170.423 198.075 170.135C197.517 169.792 196.941 169.323 196.384 169.882C195.826 170.333 195.269 170.225 194.693 170.153C194.136 169.467 193.578 170.189 193.021 170.405C192.463 170.369 191.905 170.874 191.348 170.459C190.79 170.387 190.233 170.712 189.675 170.658C189.118 170.297 188.56 170.784 188.02 170.838C187.463 170.586 186.905 170.441 186.366 171C185.808 170.784 185.269 170.856 184.711 171.109C184.154 170.676 183.614 171.487 183.056 171.127C182.499 170.477 181.959 171.181 181.402 171.036C180.898 171.235 180.43 170.982 179.981 170.748C179.531 170.297 179.1 170.441 178.686 170.604C178.272 170.369 177.876 169.99 177.499 170.098C177.121 170.261 176.743 169.557 176.366 169.936C176.006 170.279 175.628 169.611 175.269 169.629C174.909 169.197 174.531 169.864 174.171 169.233C173.794 169.305 173.416 169.593 173.038 168.908C172.643 168.349 172.247 169.503 171.815 168.637C171.402 168.709 170.952 167.573 170.484 168.313C170.017 167.248 169.531 167.988 169.009 168.313C168.452 168.385 167.912 167.537 167.373 168.168C166.833 168.006 166.33 168.024 165.808 168.439C165.304 168.222 164.801 168.367 164.315 168.439C163.83 168.746 163.344 168.89 162.876 168.962C161.923 169.323 161.006 169.503 160.107 169.684C159.207 170.297 158.308 170.387 157.409 170.441C156.509 171.163 155.628 171.56 154.711 171.073C153.812 171.073 152.876 172.083 151.941 171.397C150.988 171.794 150.017 171.542 149.009 171.253C148.74 171.524 148.47 171.451 148.2 171.307C147.948 171.163 147.678 170.964 147.427 170.964C146.905 170.676 146.383 171.055 145.772 170.748C145.322 170.513 144.909 170.567 144.513 170.766C144.117 170.928 143.739 170.658 143.362 170.874C143.002 171.415 142.642 171.614 142.283 171.307C141.941 171.451 141.599 170.928 141.257 171.379C140.916 171.578 140.574 171.379 140.232 171.56C139.891 171.758 139.531 171.884 139.153 171.975C138.973 172.029 138.775 172.155 138.596 172.389C138.398 172.642 138.218 172.696 138.002 172.425C137.606 172.137 137.193 172.173 136.743 172.353C136.401 172.444 136.06 172.209 135.736 172.263C135.394 172.209 135.07 172.425 134.729 172.353C134.621 172.173 134.513 171.506 134.387 171.632C134.279 171.073 134.171 171.235 134.045 171.506C133.937 171.433 133.829 171.83 133.703 171.794C133.596 172.335 133.488 171.975 133.362 172.173C133.146 171.83 132.912 172.858 132.696 172.173C132.354 171.632 132.031 172.48 131.689 172.101C131.347 171.83 131.024 172.498 130.682 171.993C130.412 172.155 130.142 172.191 129.872 171.83C129.603 171.451 129.333 171.524 129.063 171.451C128.793 171.055 128.524 171.632 128.272 171.397C128.002 171.271 127.75 171.578 127.48 171.92C127.211 171.451 126.959 171.812 126.689 171.596C126.419 171.65 126.167 172.317 125.916 171.83C125.664 170.892 125.394 171.487 125.142 172.029C124.89 172.876 124.621 172.462 124.369 172.155C124.117 172.101 123.847 172.425 123.595 172.389C123.344 172.624 123.092 172.786 122.822 172.353C122.318 172.462 121.797 171.848 121.293 172.57C120.88 173.003 120.484 172.822 120.07 172.822C119.657 172.173 119.261 172.57 118.847 172.949C118.434 173.003 118.038 173.418 117.624 173.039C117.21 173.291 116.797 173.76 116.383 173.345C115.969 172.913 115.556 173.345 115.142 173.598C114.728 174.013 114.315 173.021 113.883 173.688C113.469 173.634 113.038 174.338 112.606 173.959C112.174 175.023 111.743 174.446 111.311 173.923C110.879 173.382 110.448 174.049 109.998 174.067C109.567 173.833 109.117 173.616 108.667 174.013C108.2 174.175 107.714 174.013 107.246 174.049C107.013 173.869 106.779 173.869 106.545 173.778C106.311 173.742 106.077 173.778 105.843 173.923C105.61 174.175 105.376 174.085 105.142 173.959C104.908 173.887 104.674 173.814 104.441 173.905C103.973 173.833 103.505 174.067 103.038 173.724C102.57 173.472 102.102 173.309 101.635 173.418C101.401 173.183 101.167 173.183 100.933 173.345C100.7 173.67 100.466 173.345 100.232 173.616C99.7643 173.562 99.3146 173.291 98.847 173.616C98.6132 173.544 98.3974 173.562 98.1635 173.706C97.9297 173.706 97.7139 174.031 97.4801 173.706C97.0304 173.49 96.5988 173.814 96.1671 173.778C95.9513 173.634 95.7534 173.923 95.5376 174.121C95.3398 174.121 95.1239 174.247 94.9261 174.067C94.5304 174.013 94.1167 173.851 93.739 174.085C93.5412 174.284 93.3434 174.121 93.1455 174.32C92.9477 174.446 92.7498 174.554 92.552 174.554C92.1563 175.005 91.7606 174.536 91.3649 174.807C90.9692 175.059 90.5556 174.915 90.1419 174.987C89.944 175.077 89.7282 175.438 89.5124 175.456C89.2966 175.564 89.0807 175.366 88.8649 175.276C88.4332 175.276 87.9836 175.474 87.516 175.185C87.2462 175.42 86.9764 175.131 86.7246 174.987C86.4728 175.041 86.221 174.861 85.9692 174.933C85.7174 174.59 85.4836 174.626 85.2498 174.68C85.0159 174.987 84.7821 174.933 84.5483 174.933C84.3145 175.185 84.0987 175.222 83.8649 175.348C83.649 175.727 83.4152 175.24 83.1994 175.167C83.0915 174.969 82.9836 174.969 82.8756 175.023C82.7677 174.951 82.6598 174.897 82.5519 174.59C82.3361 174.428 82.1202 173.652 81.9224 174.338C81.7066 173.796 81.5087 174.085 81.2929 174.157C81.0771 174.265 80.8792 173.67 80.6634 174.392C80.5555 174.121 80.4476 173.959 80.3576 174.049C80.2497 173.995 80.1418 173.941 80.0519 174.157C79.944 173.706 79.836 173.833 79.7461 174.103C79.6382 173.778 79.5303 174.193 79.4404 173.652C79.3324 174.121 79.2245 173.742 79.1166 174.031C79.0087 174.789 78.9008 174.265 78.7929 173.778C78.577 173.941 78.3612 174.229 78.1454 173.436C78.0375 173.075 77.9295 173.093 77.8216 172.985C77.7137 172.913 77.6058 173.255 77.4979 173.4C77.2821 173.472 77.0482 173.526 76.8144 173.093C76.5806 173.327 76.3468 173.165 76.113 173.273C75.8792 172.931 75.6274 172.48 75.3936 172.949C74.9079 173.183 74.3864 172.985 73.8468 172.913C73.595 173.652 73.3612 173.093 73.1273 173.003C73.0194 173.255 72.8935 172.876 72.7856 172.768C72.6777 172.84 72.5698 172.119 72.4439 173.075C72.0122 173.075 71.5806 172.498 71.1849 173.201C70.7892 173.075 70.3935 173.4 70.0158 173.49C69.6381 173.58 69.2604 173.923 68.8827 173.76C68.7568 173.165 68.6309 173.418 68.505 173.598C68.3791 173.526 68.2532 173.508 68.1273 173.977C67.8755 174.211 67.6237 174.175 67.3719 174.175C67.1201 173.67 66.8683 174.085 66.5985 174.32C66.3287 174.464 66.0589 174.608 65.7892 174.518C65.5194 174.771 65.2316 174.554 64.9438 174.662C64.656 174.825 64.3503 174.861 64.0445 174.771C63.5769 174.554 63.1093 174.356 62.6416 174.753C62.174 174.753 61.6884 174.897 61.2028 174.843C60.7172 174.915 60.2315 174.356 59.7639 174.753C59.2783 174.807 58.7927 174.464 58.3251 174.753C57.8215 175.222 57.3179 174.32 56.8143 174.518C56.3106 174.698 55.8071 174.41 55.3034 174.734C54.7998 174.969 54.2962 175.222 53.7926 174.861C53.289 175.095 52.7854 175.691 52.2818 174.807C51.7782 174.175 51.2746 175.059 50.789 174.789C50.2854 174.861 49.7818 175.276 49.2962 174.915C48.9904 175.149 48.7027 174.572 48.3969 174.608C48.0912 175.023 47.8034 174.518 47.4976 174.771C47.1919 175.041 46.9041 174.897 46.5983 175.005C46.2926 175.348 46.0048 174.626 45.699 175.041C45.3933 174.915 45.1055 174.716 44.7998 174.446C44.494 174.139 44.2062 174.175 43.9005 174.861C43.5947 174.753 43.3069 174.897 43.0012 174.897C42.6954 175.113 42.4076 175.149 42.1019 175.167C41.7961 175.131 41.5084 175.167 41.2026 175.041C40.8968 174.771 40.6091 175.041 40.3033 175.185C39.9976 175.294 39.7098 175.294 39.404 175.185C39.0983 175.618 38.8105 175.546 38.5047 175.276C38.199 175.294 37.9112 175.095 37.6054 175.51C37.2997 175.817 37.0119 175.691 36.7062 175.438C36.4004 175.817 36.1126 175.33 35.8069 175.077C35.5011 175.095 35.2133 175.528 34.9076 175.42C34.6018 175.618 34.3141 175.149 34.0083 175.528C33.7025 175.691 33.4148 175.204 33.109 175.366C32.8032 174.987 32.5155 174.807 32.2097 175.059C31.904 174.933 31.6162 175.348 31.3104 175.546C31.0047 175.149 30.7169 175.366 30.4111 175.384C30.1054 175.582 29.8176 175.384 29.5119 175.618C28.9183 175.474 28.3248 175.961 27.7133 175.673C27.4075 175.817 27.1197 175.997 26.814 175.889C26.5082 175.979 26.2205 175.799 25.9147 175.618C25.6089 175.835 25.3212 175.889 25.0154 175.889C24.7096 175.889 24.4219 175.835 24.1161 175.817C23.5226 175.673 22.9291 175.853 22.3175 176.015C21.724 176.394 21.1305 176.196 20.519 175.961C19.9254 176.105 19.3319 175.077 18.7204 175.618C18.1269 175.564 17.5333 176.286 16.9218 176.105C16.3283 176.574 15.7348 176.629 15.1232 176.412C14.5297 176.123 13.9362 176.899 13.3247 176.25C12.7311 176.448 12.1376 176.232 11.5261 176.25C10.9325 176.214 10.339 176.322 9.7275 176.376C9.13397 176.322 8.54044 176.394 7.92893 176.358C7.33539 176.466 6.74186 176.412 6.13035 176.52C5.59078 176.538 5.0512 176.556 4.49364 176.574C4.43969 176.574 4.38573 176.574 4.33177 176.574C3.73824 176.593 0.141086 177.783 -1.04597 177.819C0.105115 177.819 8.0908 178.847 9.24189 180.182C9.81743 179.785 10.393 179.641 10.9505 179.677L11.3282 179.731Z" fill="#CBC18E"/>
</g>
</g>
<defs>
<filter id="filter0_d_1_236" x="-4.66458" y="167.759" width="371.719" height="30.3283" filterUnits="userSpaceOnUse" color-interpolation-filters="sRGB">
<feFlood flood-opacity="0" result="BackgroundImageFix"/>
<feColorMatrix in="SourceAlpha" type="matrix" values="0 0 0 0 0 0 0 0 0 0 0 0 0 0 0 0 0 0 127 0" result="hardAlpha"/>
<feOffset dy="3.61861"/>
<feGaussianBlur stdDeviation="1.8093"/>
<feColorMatrix type="matrix" values="0 0 0 0 0 0 0 0 0 0 0 0 0 0 0 0 0 0 0.3 0"/>
<feBlend mode="normal" in2="BackgroundImageFix" result="effect1_dropShadow_1_236"/>
<feBlend mode="normal" in="SourceGraphic" in2="effect1_dropShadow_1_236" result="shape"/>
</filter>
<radialGradient id="paint0_radial_1_236" cx="0" cy="0" r="1" gradientUnits="userSpaceOnUse" gradientTransform="translate(183.475 178.908) rotate(-180) scale(180.593 12.4303)">
<stop stop-color="#000100"/>
<stop offset="1" stop-color="#000100" stop-opacity="0"/>
</radialGradient>
<clipPath id="clip0_1_236">
<rect width="364" height="164" fill="white" transform="translate(0 10)"/>
</clipPath>
<clipPath id="clip1_1_236">
<rect width="364" height="26.1494" fill="white" transform="translate(0 166.08)"/>
</clipPath>
</defs>
</svg>
